<svg width="24" height="24" viewBox="0 0 24 24" fill="none" xmlns="http://www.w3.org/2000/svg">
<rect width="24" height="24" fill="#333333"/>
<path fill-rule="evenodd" clip-rule="evenodd" d="M12 24C12.6159 24 13.2024 23.7366 13.6116 23.2763L13.6126 23.2752L13.6199 23.2669L13.6378 23.2466L13.6391 23.2451C13.6545 23.2275 13.676 23.203 13.7031 23.1717C13.7574 23.1091 13.8344 23.0194 13.9309 22.9049C14.1237 22.676 14.3952 22.3471 14.719 21.9362C15.3649 21.1165 16.2284 19.959 17.0956 18.6087C18.7569 16.0219 20.7188 12.2986 20.7188 8.79007C20.7188 3.95789 16.8376 0 12 0C7.16244 0 3.28125 3.95789 3.28125 8.79007C3.28125 12.2986 5.24309 16.0219 6.90444 18.6087C7.77163 19.959 8.63514 21.1165 9.281 21.9362C9.60484 22.3471 9.87626 22.676 10.0691 22.9049C10.1656 23.0194 10.2426 23.1091 10.2969 23.1717C10.324 23.203 10.3455 23.2275 10.3609 23.2451L10.3777 23.2642L10.3842 23.2716L10.3884 23.2763C10.7976 23.7366 11.3841 24 12 24ZM12 12C14.0711 12 15.75 10.3211 15.75 8.25C15.75 6.17893 14.0711 4.5 12 4.5C9.92893 4.5 8.25 6.17893 8.25 8.25C8.25 10.3211 9.92893 12 12 12Z" fill="white"/>
</svg>
